<?xml version="1.0" standalone="no"?>
<!DOCTYPE svg PUBLIC "-//W3C//DTD SVG 20010904//EN"
 "http://www.w3.org/TR/2001/REC-SVG-20010904/DTD/svg10.dtd">
<svg version="1.0" xmlns="http://www.w3.org/2000/svg"
 width="512.000000pt" height="512.000000pt" viewBox="0 0 512.000000 512.000000"
 preserveAspectRatio="xMidYMid meet">
<metadata>
Created by potrace 1.11, written by Peter Selinger 2001-2013
</metadata>
<g transform="translate(0.000000,512.000000) scale(0.100000,-0.100000)"
fill="#000000" stroke="none">
<path d="M3675 4694 c-5 -1 -23 -5 -39 -9 -16 -3 -47 -24 -67 -46 -79 -84
-114 -252 -105 -494 13 -344 111 -722 274 -1054 91 -185 87 -207 -46 -281 -67
-38 -85 -43 -139 -44 -75 0 -111 22 -178 110 -25 32 -54 70 -64 84 -74 96
-236 239 -370 325 -127 82 -343 174 -468 200 -159 33 -202 38 -358 39 -195 1
-307 -16 -473 -70 -197 -64 -407 -181 -538 -299 -61 -54 -156 -152 -198 -204
-39 -48 -52 -59 -54 -45 -2 11 -10 33 -18 51 -8 17 -14 34 -14 38 0 11 -59 93
-87 121 -44 44 -114 84 -186 106 -260 79 -533 -119 -543 -392 -3 -91 8 -147
44 -219 93 -185 335 -283 524 -211 26 10 48 14 48 8 0 -5 -7 -33 -15 -61 -31
-108 -43 -238 -39 -417 2 -96 5 -195 8 -220 33 -341 223 -683 574 -1036 147
-149 215 -203 286 -230 48 -17 108 -18 1237 -18 1272 1 1210 -2 1229 48 8 23
-12 123 -34 164 -42 80 -146 145 -250 157 -64 7 -102 22 -127 51 -23 27 -119
199 -119 213 0 7 17 38 39 69 21 31 46 72 55 89 32 63 112 77 183 32 148 -95
314 -139 509 -135 67 2 126 6 131 9 5 3 22 8 37 11 15 3 43 10 61 16 28 9 41
8 79 -9 180 -83 381 -48 518 90 63 63 112 153 127 232 21 117 -6 256 -68 342
-28 38 -28 43 -19 100 19 117 -1 290 -49 420 -70 189 -191 338 -372 459 -107
70 -129 92 -161 153 -21 42 -25 67 -35 278 -3 61 -7 126 -10 145 -40 300 -137
615 -269 879 -97 191 -249 382 -341 425 -42 20 -94 34 -110 30z"/>
</g>
</svg>
